{
	"asset":{
		"generator":"Khronos glTF Blender I/O v3.6.27",
		"version":"2.0"
	},
	"scene":0,
	"scenes":[
		{
			"name":"Scene",
			"nodes":[
				0
			]
		}
	],
	"nodes":[
		{
			"mesh":0,
			"name":"Text",
			"rotation":[
				0.7071068286895752,
				0,
				0,
				0.7071068286895752
			]
		}
	],
	"materials":[
		{
			"doubleSided":true,
			"name":"Material.001",
			"pbrMetallicRoughness":{
				"baseColorFactor":[
					0.0060488139279186726,
					0.00972120650112629,
					0.021219011396169662,
					1
				],
				"metallicFactor":0,
				"roughnessFactor":0.5
			}
		}
	],
	"meshes":[
		{
			"name":"Text.001",
			"primitives":[
				{
					"attributes":{
						"POSITION":0,
						"NORMAL":1,
						"TEXCOORD_0":2
					},
					"indices":3,
					"material":0
				}
			]
		}
	],
	"accessors":[
		{
			"bufferView":0,
			"componentType":5126,
			"count":228,
			"max":[
				0.5,
				0.12999999523162842,
				0
			],
			"min":[
				0.07000000029802322,
				-0.12999999523162842,
				-0.6820000410079956
			],
			"type":"VEC3"
		},
		{
			"bufferView":1,
			"componentType":5126,
			"count":228,
			"type":"VEC3"
		},
		{
			"bufferView":2,
			"componentType":5126,
			"count":228,
			"type":"VEC2"
		},
		{
			"bufferView":3,
			"componentType":5123,
			"count":672,
			"type":"SCALAR"
		}
	],
	"bufferViews":[
		{
			"buffer":0,
			"byteLength":2736,
			"byteOffset":0,
			"target":34962
		},
		{
			"buffer":0,
			"byteLength":2736,
			"byteOffset":2736,
			"target":34962
		},
		{
			"buffer":0,
			"byteLength":1824,
			"byteOffset":5472,
			"target":34962
		},
		{
			"buffer":0,
			"byteLength":1344,
			"byteOffset":7296,
			"target":34963
		}
	],
	"buffers":[
		{
			"byteLength":8640,
			"uri":"P.bin"
		}
	]
}
